<svg width="615" height="443" viewBox="0 0 615 443" fill="none" xmlns="http://www.w3.org/2000/svg">
<g clip-path="url(#clip0_20_231)" filter="url(#filter0_d_20_231)">
<path d="M533.904 378.444C528.973 378.868 524.011 378.801 519.093 378.246C465.022 372.273 391.392 373.972 331.37 411.129C248.36 462.509 118.269 418.524 60.8832 394.594C17.0364 376.318 -5.72645 331.552 7.94626 289.533C8.13876 288.94 8.3366 288.347 8.54514 287.754C17.1487 262.783 34.1313 243.24 55.1618 232.881C73.4919 223.852 100.254 204.998 112.163 168.771C117.082 153.812 123.83 139.739 132.594 127.473C156.063 94.6217 205.193 45.7001 289.689 46.0046C304.503 46.0763 319.207 48.563 333.22 53.3666C364.089 63.8754 391.969 85.2402 413.23 114.859C426.795 133.75 447.125 151.311 476.23 152.743C516.622 154.741 555.17 173.531 584.088 206.97C584.922 207.932 585.745 208.898 586.569 209.876C638.057 271.16 602.295 372.471 533.904 378.444Z" fill="#6C63FF"/>
<g opacity="0.7">
<path opacity="0.7" d="M152.362 372.434C156.438 372.434 159.742 369.133 159.742 365.061C159.742 360.989 156.438 357.688 152.362 357.688C148.287 357.688 144.983 360.989 144.983 365.061C144.983 369.133 148.287 372.434 152.362 372.434Z" fill="url(#paint0_linear_20_231)"/>
</g>
<path opacity="0.2" d="M152.363 372.102C156.255 372.102 159.41 368.95 159.41 365.061C159.41 361.172 156.255 358.019 152.363 358.019C148.47 358.019 145.315 361.172 145.315 365.061C145.315 368.95 148.47 372.102 152.363 372.102Z" fill="black"/>
<path d="M112.606 223.981C114.113 223.981 115.333 222.761 115.333 221.256C115.333 219.751 114.113 218.531 112.606 218.531C111.1 218.531 109.879 219.751 109.879 221.256C109.879 222.761 111.1 223.981 112.606 223.981Z" fill="white"/>
<path d="M307.243 382.12C308.749 382.12 309.97 380.9 309.97 379.395C309.97 377.89 308.749 376.67 307.243 376.67C305.737 376.67 304.516 377.89 304.516 379.395C304.516 380.9 305.737 382.12 307.243 382.12Z" fill="white"/>
<path d="M192.279 394.808C193.121 394.808 193.803 394.126 193.803 393.285C193.803 392.445 193.121 391.763 192.279 391.763C191.438 391.763 190.755 392.445 190.755 393.285C190.755 394.126 191.438 394.808 192.279 394.808Z" fill="white"/>
<path d="M529.686 321.081C530.527 321.081 531.21 320.399 531.21 319.558C531.21 318.718 530.527 318.036 529.686 318.036C528.844 318.036 528.162 318.718 528.162 319.558C528.162 320.399 528.844 321.081 529.686 321.081Z" fill="white"/>
<path d="M442.527 184.312C443.368 184.312 444.051 183.63 444.051 182.79C444.051 181.949 443.368 181.267 442.527 181.267C441.685 181.267 441.003 181.949 441.003 182.79C441.003 183.63 441.685 184.312 442.527 184.312Z" fill="white"/>
<path d="M566.046 251.094C566.888 251.094 567.57 250.412 567.57 249.571C567.57 248.73 566.888 248.049 566.046 248.049C565.205 248.049 564.522 248.73 564.522 249.571C564.522 250.412 565.205 251.094 566.046 251.094Z" fill="white"/>
<path d="M160.731 134.76C162.237 134.76 163.458 133.54 163.458 132.035C163.458 130.531 162.237 129.311 160.731 129.311C159.225 129.311 158.004 130.531 158.004 132.035C158.004 133.54 159.225 134.76 160.731 134.76Z" fill="white"/>
<path d="M85.7795 316.39H83.3519V313.965H82.3627V316.39H79.9351V317.379H82.3627V319.799H83.3519V317.379H85.7795V316.39Z" fill="white"/>
<path d="M146.737 315.322H144.31V312.896H143.32V315.322H140.893V316.31H143.32V318.73H144.31V316.31H146.737V315.322Z" fill="white"/>
<path d="M233.896 364.473H231.469V362.048H230.479V364.473H228.052V365.462H230.479V367.882H231.469V365.462H233.896V364.473Z" fill="white"/>
<path d="M355.293 69.8323H354.186V68.7264H353.737V69.8323H352.63V70.2811H353.737V71.387H354.186V70.2811H355.293V69.8323Z" fill="white"/>
<path d="M513.034 171.341H511.928V170.235H511.478V171.341H510.372V171.789H511.478V172.895H511.928V171.789H513.034V171.341Z" fill="white"/>
<path d="M419.994 237.588H418.887V236.482H418.438V237.588H417.331V238.037H418.438V239.143H418.887V238.037H419.994V237.588Z" fill="white"/>
<path d="M41.4141 279.26H40.3072V278.154H39.8581V279.26H38.7512V279.709H39.8581V280.814H40.3072V279.709H41.4141V279.26Z" fill="white"/>
<path d="M86.865 370.083H85.7582V368.977H85.309V370.083H84.2021V370.532H85.309V371.637H85.7582V370.532H86.865V370.083Z" fill="white"/>
<path d="M229.635 83.1886H228.528V82.0827H228.079V83.1886H226.972V83.6374H228.079V84.7433H228.528V83.6374H229.635V83.1886Z" fill="white"/>
<path d="M162.26 242.93H161.153V241.825H160.704V242.93H159.597V243.379H160.704V244.485H161.153V243.379H162.26V242.93Z" fill="white"/>
<path d="M176.698 196.985H175.591V195.879H175.142V196.985H174.035V197.433H175.142V198.539H175.591V197.433H176.698V196.985Z" fill="white"/>
<g opacity="0.7">
<path opacity="0.7" d="M404.049 303.013C407.451 303.013 410.209 300.257 410.209 296.858C410.209 293.459 407.451 290.703 404.049 290.703C400.647 290.703 397.889 293.459 397.889 296.858C397.889 300.257 400.647 303.013 404.049 303.013Z" fill="url(#paint1_linear_20_231)"/>
</g>
<path opacity="0.2" d="M404.048 302.559C407.2 302.559 409.754 300.006 409.754 296.858C409.754 293.71 407.2 291.158 404.048 291.158C400.897 291.158 398.343 293.71 398.343 296.858C398.343 300.006 400.897 302.559 404.048 302.559Z" fill="black"/>
<path opacity="0.2" d="M419.411 343.359C422.934 343.359 425.79 340.506 425.79 336.986C425.79 333.466 422.934 330.612 419.411 330.612C415.888 330.612 413.032 333.466 413.032 336.986C413.032 340.506 415.888 343.359 419.411 343.359Z" fill="black"/>
<g opacity="0.7">
<path opacity="0.7" d="M362.244 164.032C362.288 150.642 359.077 137.442 352.887 125.566C349.951 119.988 347.272 116.526 345.208 114.394C344.42 113.562 343.39 112.998 342.264 112.782C341.138 112.565 339.972 112.707 338.931 113.187C338.098 113.482 337.346 113.967 336.733 114.603C333.947 117.488 331.429 121.302 329.247 125.357C322.738 137.516 319.362 151.103 319.424 164.892V173.162H314.114V76.9913C314.114 56.8393 309.601 36.9597 300.746 19.3293C296.554 10.9736 292.726 5.78066 289.79 2.59116C289.077 1.77946 288.2 1.1291 287.215 0.683544C286.231 0.237989 285.163 0.00750732 284.082 0.00750732C283.001 0.00750732 281.933 0.237989 280.949 0.683544C279.964 1.1291 279.087 1.77946 278.374 2.59116C274.396 6.91328 270.802 12.6298 267.68 18.7043C258.381 36.7193 253.659 57.1705 253.659 77.9102V173.125H249.071V164.454C249.13 150.674 245.754 137.097 239.249 124.946C237.051 120.891 234.532 117.076 231.763 114.191C230.958 113.338 229.901 112.764 228.746 112.554C227.591 112.345 226.4 112.51 225.346 113.027L225.539 113.128C224.867 113.427 224.259 113.851 223.747 114.378C221.689 116.515 219.01 119.972 216.074 125.55C209.884 137.426 206.672 150.626 206.717 164.016V307.73H223.1L221.293 319.542V354.873H234.693V319.542L232.902 307.725H249.05V176.833H253.638V307.158H266.722L264.846 319.542V354.873H278.246V319.542L276.369 307.142H294.014L292.127 319.542V354.873H305.527V319.542L303.65 307.142H314.098V176.849H319.408V307.939H323.713V307.741H337.947L336.161 319.542V354.873H349.561V319.542L347.769 307.725H362.244V164.032Z" fill="url(#paint2_linear_20_231)"/>
</g>
<path d="M237.35 312.672H224.662L226.929 297.28H235.083L237.35 312.672Z" fill="#535461"/>
<g opacity="0.1">
<path opacity="0.1" d="M226.298 303.392H235.714L235.083 299.091H226.929L226.298 303.392Z" fill="black"/>
</g>
<path d="M346.085 312.672H333.402L335.663 297.28H343.823L346.085 312.672Z" fill="#535461"/>
<g opacity="0.1">
<path opacity="0.1" d="M335.032 303.392H344.454L343.823 299.091H335.663L335.032 303.392Z" fill="black"/>
</g>
<path d="M278.577 312.672H265.894L268.155 297.28H276.315L278.577 312.672Z" fill="#535461"/>
<g opacity="0.1">
<path opacity="0.1" d="M267.524 303.392H276.946L276.315 299.091H268.155L267.524 303.392Z" fill="black"/>
</g>
<path d="M304.404 312.672H291.72L293.982 297.28H302.137L304.404 312.672Z" fill="#535461"/>
<g opacity="0.1">
<path opacity="0.1" d="M293.352 303.392H302.773L302.137 299.091H293.983L293.352 303.392Z" fill="black"/>
</g>
<path d="M327.964 170.08H237.351V173.702H327.964V170.08Z" fill="#535461"/>
<path d="M341.968 112.872C341.489 112.343 340.905 111.921 340.253 111.632C339.601 111.343 338.895 111.194 338.182 111.194C337.469 111.194 336.763 111.343 336.111 111.632C335.459 111.921 334.875 112.343 334.396 112.872C331.76 115.682 329.375 119.395 327.295 123.343C321.125 135.224 317.934 148.424 317.996 161.809V301.164H358.1V161.222C358.15 148.207 355.114 135.366 349.24 123.749C346.454 118.321 343.92 114.923 341.968 112.872Z" fill="#E0E0E0"/>
<path d="M226.966 112.872C227.445 112.343 228.029 111.921 228.681 111.632C229.333 111.343 230.039 111.194 230.752 111.194C231.465 111.194 232.171 111.343 232.823 111.632C233.475 111.921 234.059 112.343 234.538 112.872C237.179 115.682 239.559 119.395 241.644 123.343C247.812 135.225 251.003 148.425 250.943 161.809V301.164H210.839V161.222C210.789 148.207 213.825 135.366 219.699 123.749C222.48 118.321 225.015 114.923 226.966 112.872Z" fill="#E0E0E0"/>
<path d="M211.069 164.192L220.587 164.24V175.962H211.069V164.192Z" fill="#535461"/>
<path d="M241.425 164.192L250.943 164.24V175.962H241.425V164.192Z" fill="#535461"/>
<path d="M317.997 164.192L327.509 164.24V175.962H317.997V164.192Z" fill="#535461"/>
<path d="M348.352 164.192L357.865 164.24V175.962H348.352V164.192Z" fill="#535461"/>
<g opacity="0.1">
<path opacity="0.1" d="M241.644 123.162C239.559 119.213 237.179 115.5 234.538 112.69C233.792 111.864 232.795 111.305 231.701 111.099C230.606 110.894 229.475 111.053 228.479 111.552C229.053 111.838 229.571 112.223 230.009 112.69C232.645 115.5 235.03 119.213 237.11 123.162C243.28 135.042 246.471 148.243 246.409 161.628V300.972H250.943V161.633C251.004 148.247 247.813 135.045 241.644 123.162Z" fill="black"/>
</g>
<g opacity="0.1">
<path opacity="0.1" d="M330.921 123.546C333.001 119.598 335.386 115.885 338.022 113.075C338.515 112.543 339.112 112.117 339.776 111.825C338.796 111.396 337.706 111.286 336.66 111.511C335.614 111.735 334.665 112.282 333.947 113.075C331.306 115.885 328.921 119.598 326.841 123.546C320.673 135.428 317.482 148.628 317.542 162.012V301.378H321.622V162.023C321.558 148.634 324.749 135.43 330.921 123.546Z" fill="black"/>
</g>
<path d="M231.18 347.078H230.832C229.196 347.078 227.626 346.428 226.469 345.272C225.312 344.116 224.662 342.548 224.662 340.913V312.672H237.35V340.913C237.35 342.548 236.7 344.116 235.543 345.272C234.386 346.428 232.816 347.078 231.18 347.078Z" fill="url(#paint3_linear_20_231)"/>
<path d="M272.412 347.078H272.059C270.423 347.076 268.855 346.426 267.699 345.27C266.543 344.114 265.894 342.547 265.894 340.913V312.672H278.577V340.913C278.577 342.547 277.928 344.114 276.772 345.27C275.616 346.426 274.047 347.076 272.412 347.078Z" fill="url(#paint4_linear_20_231)"/>
<path d="M298.233 347.078H297.875C296.241 347.074 294.676 346.422 293.522 345.266C292.368 344.111 291.72 342.545 291.72 340.913V312.672H304.404V340.913C304.404 342.548 303.754 344.116 302.597 345.272C301.439 346.428 299.87 347.078 298.233 347.078Z" fill="url(#paint5_linear_20_231)"/>
<path d="M339.92 347.078H339.583C338.772 347.079 337.968 346.921 337.218 346.612C336.468 346.302 335.787 345.849 335.213 345.276C334.639 344.703 334.183 344.023 333.872 343.274C333.562 342.526 333.402 341.723 333.402 340.913V312.672H346.085V340.913C346.085 342.547 345.436 344.114 344.28 345.27C343.124 346.426 341.555 347.077 339.92 347.078Z" fill="url(#paint6_linear_20_231)"/>
<path d="M289.501 3.60623C288.839 2.81863 288.012 2.1854 287.078 1.75097C286.145 1.31654 285.128 1.09143 284.098 1.09143C283.068 1.09143 282.051 1.31654 281.118 1.75097C280.184 2.1854 279.357 2.81863 278.695 3.60623C274.952 7.81615 271.53 13.3777 268.535 19.2973C259.734 36.8422 255.263 56.7591 255.263 76.9539V300.598H312.478V76.0564C312.478 56.4332 308.2 37.0559 299.837 19.9063C295.907 11.7696 292.287 6.71024 289.501 3.60623Z" fill="#EEEEEE"/>
<path d="M292.549 28.449H274.454C271.206 28.449 268.573 31.0802 268.573 34.3258V36.2438C268.573 39.4895 271.206 42.1206 274.454 42.1206H292.549C295.798 42.1206 298.431 39.4895 298.431 36.2438V34.3258C298.431 31.0802 295.798 28.449 292.549 28.449Z" fill="#535461"/>
<g opacity="0.1">
<path opacity="0.1" d="M312.206 84.5991H255.574V86.7949H312.206V84.5991Z" fill="black"/>
</g>
<path d="M410.941 166.329C409.456 164.381 407.598 162.746 405.476 161.521C403.038 160.116 400.309 159.29 397.5 159.107C394.691 158.925 391.878 159.39 389.277 160.467C386.677 161.543 384.36 163.203 382.504 165.318C380.648 167.433 379.304 169.945 378.575 172.662C377.847 175.378 377.753 178.226 378.302 180.984C378.85 183.743 380.027 186.338 381.739 188.57C383.452 190.802 385.656 192.61 388.18 193.855C390.704 195.1 393.48 195.749 396.295 195.751C396.686 195.751 397.076 195.751 397.456 195.708C400.764 195.499 403.954 194.399 406.686 192.525C409.419 190.65 411.593 188.071 412.976 185.062C414.36 182.052 414.902 178.724 414.544 175.432C414.187 172.139 412.944 169.005 410.946 166.361L410.941 166.329Z" fill="url(#paint7_linear_20_231)"/>
<path opacity="0.2" d="M413.641 177.378C413.641 181.785 411.959 186.028 408.94 189.241C405.92 192.455 401.789 194.398 397.386 194.677C397.028 194.677 396.659 194.714 396.29 194.714C393.626 194.716 390.998 194.105 388.609 192.929C386.22 191.753 384.134 190.044 382.512 187.933C380.89 185.822 379.776 183.367 379.256 180.757C378.736 178.148 378.825 175.453 379.514 172.883C380.203 170.313 381.476 167.935 383.232 165.935C384.988 163.935 387.182 162.365 389.643 161.348C392.104 160.331 394.766 159.893 397.424 160.068C400.081 160.244 402.663 161.028 404.968 162.36C406.978 163.525 408.734 165.08 410.134 166.933C412.414 169.938 413.646 173.607 413.641 177.378Z" fill="black"/>
<path opacity="0.1" d="M392.017 166.377C391.12 166.763 390.255 167.218 389.429 167.74C388.878 168.04 388.404 168.465 388.044 168.979C387.866 169.238 387.768 169.544 387.762 169.858C387.757 170.173 387.844 170.482 388.012 170.747C388.435 171.324 389.248 171.41 389.964 171.453C390.717 171.548 391.481 171.472 392.199 171.228C392.684 170.989 393.125 170.669 393.504 170.283L394.996 168.931C395.531 168.461 396.065 167.814 395.857 167.152C395.733 166.915 395.553 166.713 395.332 166.564C395.11 166.415 394.855 166.323 394.589 166.297C393.303 166.047 391.97 166.281 390.846 166.954" fill="black"/>
<g opacity="0.1">
<path opacity="0.1" d="M385.788 185.135C386.293 185.135 386.702 184.726 386.702 184.221C386.702 183.717 386.293 183.308 385.788 183.308C385.283 183.308 384.874 183.717 384.874 184.221C384.874 184.726 385.283 185.135 385.788 185.135Z" fill="black"/>
</g>
<g opacity="0.1">
<path opacity="0.1" d="M404.353 181.785C406.202 181.785 407.701 180.288 407.701 178.441C407.701 176.594 406.202 175.096 404.353 175.096C402.504 175.096 401.006 176.594 401.006 178.441C401.006 180.288 402.504 181.785 404.353 181.785Z" fill="black"/>
</g>
<g opacity="0.1">
<path opacity="0.1" d="M410.166 166.933C410.156 167.807 409.895 168.66 409.414 169.391C408.932 170.121 408.251 170.698 407.451 171.053C406.651 171.407 405.766 171.525 404.901 171.391C404.036 171.257 403.228 170.878 402.573 170.298C401.917 169.719 401.443 168.963 401.205 168.122C400.967 167.28 400.976 166.388 401.231 165.552C401.487 164.715 401.977 163.97 402.644 163.404C403.312 162.838 404.127 162.475 404.995 162.36C407.007 163.524 408.765 165.079 410.166 166.933Z" fill="black"/>
</g>
<g opacity="0.1">
<path opacity="0.1" d="M410.476 187.357C408.983 189.48 407.032 191.24 404.766 192.507C402.5 193.774 399.978 194.516 397.386 194.677C397.386 194.436 397.354 194.196 397.354 193.95C397.355 192.429 397.78 190.937 398.579 189.643C399.379 188.348 400.523 187.3 401.883 186.617C403.244 185.933 404.767 185.641 406.285 185.771C407.802 185.902 409.253 186.451 410.476 187.357Z" fill="black"/>
</g>
<path d="M173.912 265.3C172.876 263.932 171.578 262.784 170.094 261.923C168.39 260.924 166.478 260.332 164.508 260.193C162.537 260.053 160.561 260.37 158.733 261.118C156.905 261.867 155.275 263.027 153.969 264.508C152.663 265.989 151.718 267.752 151.205 269.658C150.693 271.564 150.628 273.563 151.016 275.498C151.404 277.434 152.233 279.254 153.44 280.816C154.647 282.379 156.199 283.642 157.975 284.507C159.75 285.372 161.702 285.816 163.677 285.804C163.95 285.804 164.212 285.804 164.49 285.778C166.794 285.623 169.013 284.849 170.914 283.54C172.815 282.23 174.327 280.432 175.291 278.335C176.254 276.238 176.634 273.921 176.389 271.626C176.145 269.332 175.285 267.147 173.901 265.3H173.912Z" fill="url(#paint8_linear_20_231)"/>
<path opacity="0.2" d="M175.794 273.009C175.793 276.084 174.62 279.044 172.513 281.286C170.407 283.528 167.524 284.883 164.452 285.078C164.201 285.078 163.918 285.078 163.688 285.078C161.831 285.077 159.999 284.65 158.334 283.829C156.669 283.009 155.216 281.816 154.086 280.344C152.955 278.873 152.179 277.161 151.817 275.341C151.455 273.522 151.517 271.644 151.997 269.852C152.478 268.06 153.364 266.403 154.588 265.008C155.812 263.613 157.341 262.518 159.056 261.808C160.771 261.098 162.627 260.792 164.48 260.912C166.333 261.033 168.133 261.578 169.741 262.506C171.145 263.322 172.371 264.412 173.345 265.711C174.939 267.81 175.799 270.374 175.794 273.009Z" fill="black"/>
<path opacity="0.1" d="M160.704 265.337C160.079 265.603 159.476 265.919 158.902 266.283C158.52 266.496 158.189 266.792 157.934 267.148C157.816 267.332 157.752 267.546 157.752 267.765C157.752 267.984 157.816 268.198 157.934 268.382C158.112 268.557 158.325 268.692 158.56 268.777C158.794 268.862 159.044 268.895 159.293 268.874C159.818 268.942 160.352 268.889 160.854 268.719C161.194 268.551 161.503 268.327 161.768 268.056L162.806 267.116C163.169 266.785 163.565 266.336 163.405 265.877C163.323 265.708 163.198 265.565 163.043 265.46C162.889 265.355 162.709 265.292 162.522 265.278C161.627 265.103 160.699 265.267 159.918 265.738" fill="black"/>
<g opacity="0.1">
<path opacity="0.1" d="M156.357 278.416C156.708 278.416 156.993 278.131 156.993 277.78C156.993 277.429 156.708 277.144 156.357 277.144C156.005 277.144 155.72 277.429 155.72 277.78C155.72 278.131 156.005 278.416 156.357 278.416Z" fill="black"/>
</g>
<g opacity="0.1">
<path opacity="0.1" d="M169.313 276.086C170.604 276.086 171.65 275.041 171.65 273.752C171.65 272.462 170.604 271.417 169.313 271.417C168.022 271.417 166.976 272.462 166.976 273.752C166.976 275.041 168.022 276.086 169.313 276.086Z" fill="black"/>
</g>
<g opacity="0.1">
<path opacity="0.1" d="M173.35 265.722C173.345 266.338 173.163 266.939 172.825 267.454C172.487 267.969 172.008 268.376 171.445 268.626C170.882 268.876 170.258 268.959 169.649 268.864C169.04 268.769 168.471 268.502 168.011 268.092C167.55 267.683 167.217 267.15 167.052 266.557C166.886 265.964 166.895 265.336 167.078 264.747C167.26 264.159 167.609 263.636 168.081 263.24C168.553 262.845 169.129 262.593 169.741 262.516C171.147 263.332 172.375 264.422 173.35 265.722Z" fill="black"/>
</g>
<g opacity="0.1">
<path opacity="0.1" d="M173.585 279.97C172.544 281.451 171.182 282.68 169.601 283.564C168.02 284.448 166.261 284.965 164.452 285.078C164.452 284.912 164.452 284.741 164.452 284.544C164.453 283.482 164.749 282.442 165.307 281.538C165.865 280.635 166.663 279.904 167.612 279.427C168.561 278.95 169.624 278.746 170.683 278.837C171.741 278.928 172.753 279.311 173.607 279.944L173.585 279.97Z" fill="black"/>
</g>
<path d="M514.601 229.766C515.144 229.766 515.585 229.326 515.585 228.783C515.585 228.241 515.144 227.8 514.601 227.8C514.058 227.8 513.617 228.241 513.617 228.783C513.617 229.326 514.058 229.766 514.601 229.766Z" fill="white"/>
</g>
<defs>
<filter id="filter0_d_20_231" x="0" y="0" width="615" height="443" filterUnits="userSpaceOnUse" color-interpolation-filters="sRGB">
<feFlood flood-opacity="0" result="BackgroundImageFix"/>
<feColorMatrix in="SourceAlpha" type="matrix" values="0 0 0 0 0 0 0 0 0 0 0 0 0 0 0 0 0 0 127 0" result="hardAlpha"/>
<feOffset dy="4"/>
<feGaussianBlur stdDeviation="2"/>
<feComposite in2="hardAlpha" operator="out"/>
<feColorMatrix type="matrix" values="0 0 0 0 0 0 0 0 0 0 0 0 0 0 0 0 0 0 0.25 0"/>
<feBlend mode="normal" in2="BackgroundImageFix" result="effect1_dropShadow_20_231"/>
<feBlend mode="normal" in="SourceGraphic" in2="effect1_dropShadow_20_231" result="shape"/>
</filter>
<linearGradient id="paint0_linear_20_231" x1="152.362" y1="372.434" x2="152.362" y2="357.694" gradientUnits="userSpaceOnUse">
<stop stop-color="#808080" stop-opacity="0.25"/>
<stop offset="0.54" stop-color="#808080" stop-opacity="0.12"/>
<stop offset="1" stop-color="#808080" stop-opacity="0.1"/>
</linearGradient>
<linearGradient id="paint1_linear_20_231" x1="9615.01" y1="7271.99" x2="9615.01" y2="6988.51" gradientUnits="userSpaceOnUse">
<stop stop-color="#808080" stop-opacity="0.25"/>
<stop offset="0.54" stop-color="#808080" stop-opacity="0.12"/>
<stop offset="1" stop-color="#808080" stop-opacity="0.1"/>
</linearGradient>
<linearGradient id="paint2_linear_20_231" x1="86825.3" y1="250946" x2="86825.3" y2="15220.2" gradientUnits="userSpaceOnUse">
<stop stop-color="#808080" stop-opacity="0.25"/>
<stop offset="0.54" stop-color="#808080" stop-opacity="0.12"/>
<stop offset="1" stop-color="#808080" stop-opacity="0.1"/>
</linearGradient>
<linearGradient id="paint3_linear_20_231" x1="231.009" y1="312.672" x2="231.009" y2="347.078" gradientUnits="userSpaceOnUse">
<stop stop-color="#E0E0E0"/>
<stop offset="0.31" stop-color="#FCCC63"/>
<stop offset="0.77" stop-color="#F55F44"/>
</linearGradient>
<linearGradient id="paint4_linear_20_231" x1="7039.5" y1="21924.4" x2="7039.5" y2="24140.1" gradientUnits="userSpaceOnUse">
<stop stop-color="#E0E0E0"/>
<stop offset="0.31" stop-color="#FCCC63"/>
<stop offset="0.77" stop-color="#F55F44"/>
</linearGradient>
<linearGradient id="paint5_linear_20_231" x1="7677.96" y1="21924.4" x2="7677.96" y2="24140.1" gradientUnits="userSpaceOnUse">
<stop stop-color="#E0E0E0"/>
<stop offset="0.31" stop-color="#FCCC63"/>
<stop offset="0.77" stop-color="#F55F44"/>
</linearGradient>
<linearGradient id="paint6_linear_20_231" x1="8708.3" y1="21924.4" x2="8708.3" y2="24140.2" gradientUnits="userSpaceOnUse">
<stop stop-color="#E0E0E0"/>
<stop offset="0.31" stop-color="#FCCC63"/>
<stop offset="0.77" stop-color="#F55F44"/>
</linearGradient>
<linearGradient id="paint7_linear_20_231" x1="28493.3" y1="15170.4" x2="28493.3" y2="12651.8" gradientUnits="userSpaceOnUse">
<stop stop-color="#808080" stop-opacity="0.25"/>
<stop offset="0.54" stop-color="#808080" stop-opacity="0.12"/>
<stop offset="1" stop-color="#808080" stop-opacity="0.1"/>
</linearGradient>
<linearGradient id="paint8_linear_20_231" x1="8656.98" y1="15078.6" x2="8656.98" y2="13850" gradientUnits="userSpaceOnUse">
<stop stop-color="#808080" stop-opacity="0.25"/>
<stop offset="0.54" stop-color="#808080" stop-opacity="0.12"/>
<stop offset="1" stop-color="#808080" stop-opacity="0.1"/>
</linearGradient>
<clipPath id="clip0_20_231">
<rect width="607" height="435" fill="white" transform="translate(4)"/>
</clipPath>
</defs>
</svg>
